<svg width="500" height="500" viewBox="0 0 500 500" fill="none" xmlns="http://www.w3.org/2000/svg">
<g clip-path="url(#clip0_207_721)">
<path d="M249.993 499.999C110.005 499.999 72.3244 492.91 39.7 460.285C6.89207 427.463 0 389.981 0 249.993C0 110.005 7.08979 72.522 39.7141 39.7141C72.3244 7.08979 110.005 0 249.993 0C389.981 0 427.662 7.08979 460.286 39.7141C493.108 72.5361 500 110.019 500 250.007C500 389.995 493.108 427.477 460.286 460.3C427.676 492.91 389.981 500.014 249.993 500.014V499.999Z" fill="black"/>
<path d="M86.7852 206.742C116.799 206.742 133.418 225.346 133.418 253.871C133.418 281.652 116.055 301 86.7852 301H52.3066V206.742H86.7852ZM86.7852 287.357C105.885 287.357 117.295 274.459 117.295 253.871C117.295 233.283 105.885 220.385 86.7852 220.385H67.9336V287.357H86.7852ZM214.281 301L192.205 264.289H169.881V301H154.502V206.742H193.445C214.033 206.742 226.932 217.904 226.932 235.516C226.932 248.414 219.986 257.84 208.328 262.057L232.141 301H214.281ZM169.881 220.385V251.391H191.957C204.607 251.391 210.809 245.934 210.809 235.764C210.809 225.594 204.607 220.385 191.957 220.385H169.881ZM355.916 206.742V301H340.785V224.602L312.012 301H294.648L265.875 224.602V301H250.744V206.742H274.805L303.578 282.645L332.104 206.742H355.916ZM423.633 206.742C444.221 206.742 457.119 217.904 457.119 235.764C457.119 253.871 444.221 265.033 423.633 265.033H399.82V301H384.193V206.742H423.633ZM421.648 251.639C434.547 251.639 441.244 246.182 441.244 236.012C441.244 225.594 434.547 220.385 421.648 220.385H399.82V251.639H421.648Z" fill="white"/>
</g>
<defs>
<clipPath id="clip0_207_721">
<rect width="500" height="500" fill="white"/>
</clipPath>
</defs>
</svg>
